<?xml version="1.0" encoding="UTF-8"?>
<!DOCTYPE svg PUBLIC "-//W3C//DTD SVG 1.1//EN" "http://www.w3.org/Graphics/SVG/1.1/DTD/svg11.dtd">
<!-- Creator: CorelDRAW 2020 (64 Bit Versão de avaliação) -->
<svg xmlns="http://www.w3.org/2000/svg" xml:space="preserve" width="210mm" height="297mm" version="1.1" style="shape-rendering:geometricPrecision; text-rendering:geometricPrecision; image-rendering:optimizeQuality; fill-rule:evenodd; clip-rule:evenodd"
viewBox="0 0 21000 29700"
 xmlns:xlink="http://www.w3.org/1999/xlink"
 xmlns:xodm="http://www.corel.com/coreldraw/odm/2003">
 <defs>
  <style type="text/css">
   <![CDATA[
    .str0 {stroke:#E0D7CF;stroke-width:300;stroke-miterlimit:22.9256}
    .str1 {stroke:#613834;stroke-width:200;stroke-linecap:round;stroke-linejoin:round;stroke-miterlimit:114.593}
    .str2 {stroke:#8B8989;stroke-width:130;stroke-linecap:round;stroke-linejoin:round;stroke-miterlimit:22.9256}
    .fil1 {fill:none}
    .fil9 {fill:none;fill-rule:nonzero}
    .fil3 {fill:#3B0A0A}
    .fil4 {fill:#481816}
    .fil5 {fill:#8B8989}
    .fil6 {fill:#992339}
    .fil0 {fill:#E8DED6}
    .fil2 {fill:#F2F1ED}
    .fil7 {fill:#FFF9F4}
    .fil10 {fill:#C70540}
    .fil11 {fill:#8B8989;fill-rule:nonzero}
    .fil8 {fill:#F2F1ED;fill-rule:nonzero}
   ]]>
  </style>
   <clipPath id="id0">
    <path d="M7789.75 9571.01c-403.04,403.05 -298.01,1161.53 234.58,1694.13 532.59,532.59 1291.08,637.62 1694.12,234.57 403.05,-403.05 298.03,-1161.54 -234.56,-1694.13 -532.6,-532.59 -1291.08,-637.61 -1694.14,-234.57z"/>
   </clipPath>
   <clipPath id="id1">
    <path d="M12113.67 9811.82c-530.41,530.42 -635,1285.79 -233.61,1687.18 401.39,401.39 1156.76,296.8 1687.17,-233.62 530.4,-530.4 634.99,-1285.77 233.6,-1687.16 -401.39,-401.39 -1156.76,-296.8 -1687.16,233.6z"/>
   </clipPath>
    <clipPath id="id2">
     <path d="M12996.82 14554.8c-43.27,-235.12 -590.71,-337.54 -812.13,-359.18 -663.27,-65.56 -1136.35,320.08 -1240.56,410.81 -104.21,-90.73 -577.29,-476.37 -1240.56,-410.81 -221.42,21.64 -768.86,124.06 -812.13,359.18 -38.39,204.72 298.03,562.17 2047.01,1227 1.89,0.72 3.78,1.44 5.68,2.16 1753.93,-666.22 2091.12,-1024.21 2052.69,-1229.16z"/>
    </clipPath>
 </defs>
 <g id="Camada_x0020_1">
  <metadata id="CorelCorpID_0Corel-Layer"/>
  <path id="cabeça_x0020_centro" class="fil0" d="M10944.13 6302.87c-4700.4,0 -8510.83,3461.81 -8510.83,7732.17 0,4270.36 3810.43,7732.17 8510.83,7732.17 4700.4,0 8510.83,-3461.81 8510.83,-7732.17 0,-4270.36 -3810.43,-7732.17 -8510.83,-7732.17zm-5800.35 7207.95c0,-597.12 450.8,-1081.19 1006.87,-1081.19 345.55,0 650.45,186.92 831.78,471.73 110.48,173.52 175.1,383.39 175.1,609.46 0,597.13 -450.8,1081.19 -1006.88,1081.19 -459.24,0 -846.69,-330.16 -967.7,-781.51 -25.5,-95.16 -39.17,-195.71 -39.17,-299.68zm318.79 3472.93c0,-1918.05 2421.89,-3472.93 5409.43,-3472.93 2987.54,0 5409.43,1554.88 5409.43,3472.93 0,1918.05 -2421.89,3472.92 -5409.43,3472.92 -2987.54,0 -5409.43,-1554.87 -5409.43,-3472.92zm2603.69 -5740.19c-521.08,-473.4 -623.84,-1147.6 -229.51,-1505.85 394.34,-358.25 1136.43,-264.9 1657.51,208.5 521.07,473.41 623.82,1147.6 229.49,1505.86 -394.33,358.25 -1136.41,264.9 -1657.49,-208.51zm7529.98 3250.17c-537.76,0 -973.7,-471.45 -973.7,-1053.02 0,-220.33 62.57,-424.86 169.55,-593.93 175.38,-277.19 470.12,-459.09 804.15,-459.09 537.75,0 973.69,471.45 973.69,1053.02 0,101.08 -13.17,198.83 -37.75,291.37 -116.87,439.84 -491.66,761.65 -935.94,761.65zm-3720.47 -3041.63c-394.33,-358.26 -291.58,-1032.45 229.5,-1505.86 521.07,-473.41 1263.16,-566.76 1657.49,-208.5 394.33,358.25 291.58,1032.44 -229.5,1505.85 -521.07,473.41 -1263.16,566.76 -1657.49,208.51z"/>
  <ellipse id="borda_x0020_centro" class="fil1 str0" cx="10969.13" cy="14005.37" rx="8510.83" ry="7732.17"/>
  <path id="focinho_x0020_centro" class="fil2" d="M5462.57 16983.75c0,1918.05 2421.89,3472.92 5409.43,3472.92 2987.54,0 5409.43,-1554.87 5409.43,-3472.92 0,-1918.05 -2421.89,-3472.93 -5409.43,-3472.93 -2987.54,0 -5409.43,1554.88 -5409.43,3472.93zm5475.88 -1271.75c-1748.98,-604 -2085.4,-928.74 -2047.01,-1114.73 43.27,-213.62 590.71,-306.67 812.13,-326.33 663.27,-59.56 1136.35,290.8 1240.56,373.23 104.21,-82.43 577.29,-432.79 1240.56,-373.23 221.42,19.66 768.86,112.71 812.13,326.33 38.43,186.19 -298.76,511.43 -2052.69,1116.7 -2.09,0.72 -4.2,1.44 -6.29,2.16 0.21,-1.38 0.41,-2.76 0.61,-4.13z"/>
  <path id="sobrancelha_x0020_esquerda_x0020_com_x0020_sombra" class="fil3" d="M7789.75 9571.01c-403.04,403.05 -298.01,1161.53 234.58,1694.13 532.59,532.59 1291.08,637.62 1694.12,234.57 403.05,-403.05 298.03,-1161.54 -234.56,-1694.13 -532.6,-532.59 -1291.08,-637.61 -1694.14,-234.57z"/>
  <g style="clip-path:url(#id0)">
   <g id="_2717900244784">
    <path id="1" class="fil4" d="M8010 9791.26c-362.21,362.21 -267.82,1043.84 210.81,1522.47 478.63,478.64 1160.27,573.02 1522.48,210.82 362.2,-362.22 267.82,-1043.86 -210.81,-1522.49 -478.63,-478.63 -1160.26,-573.01 -1522.48,-210.8z"/>
   </g>
  </g>
  <path class="fil1" d="M7789.75 9571.01c-403.04,403.05 -298.01,1161.53 234.58,1694.13 532.59,532.59 1291.08,637.62 1694.12,234.57 403.05,-403.05 298.03,-1161.54 -234.56,-1694.13 -532.6,-532.59 -1291.08,-637.61 -1694.14,-234.57z"/>
  <g id="pi_x0020_sobran_x0020_baixo">
   <circle class="fil5" transform="matrix(0.911575 -0.124619 0.124619 0.911575 13707.5 11512.7)" r="275.16"/>
   <circle class="fil5" transform="matrix(0.911575 -0.124619 0.124619 0.911575 14142.9 10939.5)" r="275.16"/>
  </g>
  <path id="sobrancelha_x0020_direita_x0020_com_x0020_sombra" class="fil3" d="M12113.67 9811.82c-530.41,530.42 -635,1285.79 -233.61,1687.18 401.39,401.39 1156.76,296.8 1687.17,-233.62 530.4,-530.4 634.99,-1285.77 233.6,-1687.16 -401.39,-401.39 -1156.76,-296.8 -1687.16,233.6z"/>
  <g style="clip-path:url(#id1)">
   <g id="_2717900242912">
    <path id="1" class="fil4" d="M12065.27 10007.5c-476.67,476.67 -570.66,1155.51 -209.94,1516.23 360.72,360.72 1039.56,266.73 1516.22,-209.95 476.67,-476.66 570.66,-1155.5 209.94,-1516.22 -360.72,-360.72 -1039.56,-266.73 -1516.22,209.94z"/>
   </g>
  </g>
  <path class="fil1" d="M12113.67 9811.82c-530.41,530.42 -635,1285.79 -233.61,1687.18 401.39,401.39 1156.76,296.8 1687.17,-233.62 530.4,-530.4 634.99,-1285.77 233.6,-1687.16 -401.39,-401.39 -1156.76,-296.8 -1687.16,233.6z"/>
  <g id="pi_x0020_sobran_x0020_cima">
   <circle class="fil5" transform="matrix(0.881315 0.264166 -0.264166 0.881315 12093.7 9463.43)" r="275.16"/>
   <circle class="fil5" transform="matrix(0.881315 0.264166 -0.264166 0.881315 12727.4 9122)" r="275.16"/>
  </g>
  <path id="iris_x0020_esquerda" class="fil6" d="M7085.8 12722.82l-1900.64 1067.59c127.8,530.01 537.03,917.71 1022.1,917.71 587.34,0 1063.48,-568.42 1063.48,-1269.62 0,-265.47 -68.25,-511.91 -184.94,-715.68z"/>
  <path id="pupila_x0020_esquerda" class="fil3" d="M7089.57 12722.82l-1574.72 884.52c105.89,439.11 444.95,760.33 846.83,760.33 486.62,0 881.11,-470.95 881.11,-1051.9 0,-219.95 -56.54,-424.13 -153.22,-592.95z"/>
  <ellipse id="brilhinho_x0020_esquerda" class="fil7" cx="5834.46" cy="13684" rx="324.16" ry="327.43"/>
  <path id="palpebra_x0020_esquerda" class="fil2" d="M6207.26 12168.88c-587.34,0 -1063.48,568.43 -1063.48,1269.62 0,122.09 14.44,240.16 41.38,351.91l1900.64 -1067.59c-191.53,-334.44 -513.57,-553.94 -878.54,-553.94z"/>
  <path id="iris_x0020_direita" class="fil6" d="M14562.67 13367.77c0,687.63 449.34,1245.06 1003.63,1245.06 457.94,0 844.26,-380.5 964.72,-900.55l-1793.59 -1046.75c-110.27,199.91 -174.76,441.74 -174.76,702.24z"/>
  <path id="pupila_x0020_direita" class="fil3" d="M14562.67 13247.74c0,570.1 372.54,1032.25 832.09,1032.25 379.67,0 699.95,-315.46 799.82,-746.63l-1487.02 -867.83c-91.42,165.74 -144.89,366.23 -144.89,582.21z"/>
  <ellipse id="brilhinho_x0020_direita" class="fil7" cx="15917.06" cy="13652.38" rx="316.35" ry="329.68"/>
  <path id="palpebra_x0020_direita" class="fil2" d="M14737.43 12665.53l1793.59 1046.75c25.34,-109.41 38.91,-225 38.91,-344.51 0,-687.63 -449.34,-1245.05 -1003.63,-1245.05 -344.3,0 -648.09,215.06 -828.87,542.81z"/>
  <g id="boquinha_x0020_centro">
   <g>
    <path class="fil8" d="M10950.6 15674.28c-64.27,461.88 -236.75,1383.13 -740.25,2220.16 -277.47,460.87 -567.79,751.82 -786.32,931.32l1526.57 -3151.48zm0 0l0 0 0 0z"/>
    <path id="1" class="fil9 str1" d="M10950.6 15674.28c-64.27,461.88 -236.75,1383.13 -740.25,2220.16 -277.47,460.87 -567.79,751.82 -786.32,931.32m1526.57 -3151.48l0 0 0 0z"/>
   </g>
   <g>
    <path class="fil8" d="M10936.73 15677.59c64.28,461.88 236.75,1383.12 740.26,2220.16 277.46,460.87 567.78,751.81 786.32,931.32l-1526.58 -3151.48zm0 0l0 0 0 0z"/>
    <path id="1" class="fil9 str1" d="M10936.73 15677.59c64.28,461.88 236.75,1383.12 740.26,2220.16 277.46,460.87 567.78,751.81 786.32,931.32m-1526.58 -3151.48l0 0 0 0z"/>
   </g>
  </g>
  <g>
   <path id="piercing_x0020_frente" class="fil1 str2" d="M10292.1 15375.35c66.81,160.99 -9.54,345.65 -170.52,412.46 -160.99,66.81 -345.65,-9.54 -412.46,-170.52 -66.81,-160.99 9.54,-345.65 170.52,-412.46"/>
   <path id="nariz_x0020_centro" class="fil10" d="M12996.82 14554.8c-43.27,-235.12 -590.71,-337.54 -812.13,-359.18 -663.27,-65.56 -1136.35,320.08 -1240.56,410.81 -104.21,-90.73 -577.29,-476.37 -1240.56,-410.81 -221.42,21.64 -768.86,124.06 -812.13,359.18 -38.39,204.72 298.03,562.17 2047.01,1227 1.89,0.72 3.78,1.44 5.68,2.16 1753.93,-666.22 2091.12,-1024.21 2052.69,-1229.16z"/>
   <g style="clip-path:url(#id2)">
    <g>
     <path id="1" class="fil6" d="M12652.71 14792.66c-35.99,-195.53 -491.23,-280.7 -675.37,-298.7 -551.57,-54.52 -944.98,266.18 -1031.64,341.63 -86.66,-75.45 -480.07,-396.15 -1031.64,-341.63 -184.14,18 -639.38,103.17 -675.37,298.7 -31.92,170.24 247.85,467.49 1702.29,1020.36 1.57,0.6 3.14,1.2 4.72,1.8 1458.56,-554.02 1738.96,-851.73 1707.01,-1022.16z"/>
     <g id="_2717900238160">
      <ellipse id="narina_x0020_direita" class="fil3" transform="matrix(0.929328 -0.369255 0.369255 0.929328 11446.9 15470)" rx="295.66" ry="131.18"/>
      <ellipse id="narina_x0020_esquerda" class="fil3" transform="matrix(0.918237 0.396032 -0.396032 0.918237 10389.3 15468.9)" rx="295.66" ry="131.18"/>
     </g>
    </g>
   </g>
   <path class="fil1" d="M12996.82 14554.8c-43.27,-235.12 -590.71,-337.54 -812.13,-359.18 -663.27,-65.56 -1136.35,320.08 -1240.56,410.81 -104.21,-90.73 -577.29,-476.37 -1240.56,-410.81 -221.42,21.64 -768.86,124.06 -812.13,359.18 -38.39,204.72 298.03,562.17 2047.01,1227 1.89,0.72 3.78,1.44 5.68,2.16 1753.93,-666.22 2091.12,-1024.21 2052.69,-1229.16z"/>
   <g>
    <path id="piercing_x0020_atras" class="fil11" d="M10230.16 15404.06c-13.75,-33.15 1.98,-71.2 35.13,-84.95 33.15,-13.75 71.2,1.98 84.95,35.13l-120.08 49.82zm-85.57 447.59l-49.82 -120.08 -0.01 0 11.86 -5.27 11.4 -5.78 10.97 -6.28 10.54 -6.75 10.1 -7.22 9.67 -7.67 9.23 -8.09 8.77 -8.48 8.32 -8.89 7.85 -9.23 7.37 -9.59 6.9 -9.94 6.41 -10.23 5.89 -10.49 5.38 -10.78 4.87 -11.02 4.33 -11.22 3.8 -11.45 3.25 -11.61 2.69 -11.75 2.13 -11.9 1.54 -11.99 0.97 -12.1 0.38 -12.16 -0.21 -12.2 -0.83 -12.24 -1.43 -12.25 -2.06 -12.24 -2.69 -12.22 -3.35 -12.23 -3.98 -12.14 -4.67 -12.1 120.08 -49.82 7.03 18.22 6.04 18.4 5.05 18.49 4.11 18.6 3.14 18.68 2.19 18.67 1.25 18.66 0.33 18.6 -0.58 18.5 -1.47 18.38 -2.36 18.25 -3.23 18.06 -4.07 17.85 -4.93 17.59 -5.74 17.31 -6.57 17.04 -7.37 16.68 -8.16 16.32 -8.95 15.95 -9.71 15.51 -10.46 15.04 -11.21 14.59 -11.95 14.07 -12.66 13.51 -13.37 12.94 -14.05 12.31 -14.73 11.67 -15.4 11 -16.04 10.29 -16.67 9.54 -17.28 8.76 -17.82 7.93 -0.01 0zm-497.41 -205.65l120.08 -49.82 0 -0.01 5.27 11.86 5.78 11.4 6.28 10.97 6.75 10.54 7.22 10.1 7.67 9.67 8.09 9.23 8.48 8.77 8.89 8.32 9.23 7.85 9.59 7.37 9.94 6.9 10.23 6.41 10.49 5.89 10.78 5.38 11.02 4.87 11.22 4.33 11.45 3.8 11.61 3.25 11.75 2.69 11.9 2.13 11.99 1.54 12.1 0.97 12.16 0.38 12.2 -0.21 12.24 -0.83 12.25 -1.43 12.24 -2.06 12.22 -2.69 12.23 -3.35 12.14 -3.98 12.1 -4.67 49.82 120.08 -18.22 7.03 -18.4 6.04 -18.49 5.05 -18.6 4.11 -18.68 3.14 -18.67 2.19 -18.66 1.25 -18.6 0.33 -18.5 -0.58 -18.38 -1.47 -18.25 -2.36 -18.06 -3.23 -17.85 -4.07 -17.59 -4.93 -17.31 -5.74 -17.04 -6.57 -16.68 -7.37 -16.32 -8.16 -15.95 -8.95 -15.51 -9.71 -15.04 -10.46 -14.59 -11.21 -14.07 -11.95 -13.51 -12.66 -12.94 -13.37 -12.31 -14.05 -11.67 -14.73 -11 -15.4 -10.29 -16.04 -9.54 -16.67 -8.76 -17.28 -7.93 -17.82 0 -0.01zm7.9 -309.49l117.38 55.88 -2.79 6.07 -2.61 6.07 -2.43 6.15 -2.29 6.2 -2.09 6.22 -1.94 6.29 -1.78 6.34 -1.6 6.33 -1.42 6.36 -1.27 6.44 -1.1 6.44 -0.92 6.45 -0.76 6.45 -0.58 6.52 -0.43 6.52 -0.25 6.49 -0.08 6.51 0.09 6.54 0.25 6.5 0.43 6.5 0.6 6.52 0.76 6.47 0.93 6.45 1.11 6.45 1.27 6.42 1.45 6.42 1.61 6.37 1.79 6.34 1.95 6.28 2.13 6.27 2.29 6.22 2.48 6.19 -120.08 49.82 -3.74 -9.37 -3.49 -9.44 -3.23 -9.51 -2.97 -9.58 -2.71 -9.64 -2.45 -9.67 -2.19 -9.7 -1.95 -9.78 -1.67 -9.79 -1.43 -9.83 -1.16 -9.87 -0.9 -9.84 -0.65 -9.9 -0.39 -9.9 -0.13 -9.86 0.12 -9.91 0.39 -9.91 0.63 -9.84 0.9 -9.84 1.14 -9.85 1.42 -9.83 1.66 -9.76 1.91 -9.72 2.18 -9.72 2.44 -9.67 2.68 -9.58 2.94 -9.53 3.21 -9.5 3.45 -9.4 3.71 -9.33 3.97 -9.27 4.21 -9.15zm0 0c15.43,-32.41 54.22,-46.18 86.63,-30.75 32.41,15.43 46.18,54.22 30.75,86.63l-117.38 -55.88z"/>
   </g>
  </g>
 </g>
</svg>
